<svg width="18" height="18" viewBox="0 0 18 18" fill="none" xmlns="http://www.w3.org/2000/svg">
<g clip-path="url(#clip0_710_18)">
<path d="M0.197703 9.57285L4.02271 5.74782C4.28631 5.48421 4.7137 5.48421 4.9773 5.74782C5.21694 5.98745 5.23872 6.36245 5.04266 6.6267L4.9773 6.70241L1.6296 10.0501L4.9773 13.3979C5.2409 13.6614 5.2409 14.0888 4.9773 14.3524C4.73766 14.5921 4.36266 14.6138 4.09841 14.4177L4.02271 14.3524L0.197703 10.5274C-0.0419397 10.2877 -0.0637198 9.91279 0.132345 9.64854L0.197703 9.57285ZM13.0227 5.74782C13.2623 5.50817 13.6373 5.48639 13.9016 5.68246L13.9773 5.74782L17.8023 9.57285C18.042 9.81244 18.0637 10.1875 17.8676 10.4517L17.8023 10.5274L13.9773 14.3524C13.7137 14.616 13.2863 14.616 13.0227 14.3524C12.7831 14.1128 12.7613 13.7378 12.9574 13.4735L13.0227 13.3979L16.3704 10.0501L13.0227 6.70241C12.7591 6.4388 12.7591 6.01142 13.0227 5.74782Z" fill="white"/>
</g>
<defs>
<clipPath id="clip0_710_18">
<rect width="18" height="18" fill="white"/>
</clipPath>
</defs>
</svg>
