<svg width="127" height="18" viewBox="0 0 127 18" fill="none" xmlns="http://www.w3.org/2000/svg">
<mask id="path-1-inside-1_448_3705" fill="white">
<path d="M18.0918 17.6819C18.0918 17.8446 17.9599 17.9766 17.7971 17.9766H8.98827C4.02417 17.9766 -2.86102e-05 13.9524 -2.86102e-05 8.98827C-2.86102e-05 4.02417 4.05289 -2.86102e-05 9.01698 -2.86102e-05C14.0129 -2.86102e-05 18.0918 4.04996 18.0918 9.04588V17.6819Z"/>
</mask>
<path d="M18.0918 17.6819C18.0918 17.8446 17.9599 17.9766 17.7971 17.9766H8.98827C4.02417 17.9766 -2.86102e-05 13.9524 -2.86102e-05 8.98827C-2.86102e-05 4.02417 4.05289 -2.86102e-05 9.01698 -2.86102e-05C14.0129 -2.86102e-05 18.0918 4.04996 18.0918 9.04588V17.6819Z" fill="#FAF9F6"/>
<path d="M17.7971 -0.0234375H8.98827V35.9766H17.7971V-0.0234375ZM0.0917969 9.04588V17.6819H36.0918V9.04588H0.0917969ZM9.01698 18C4.1466 18 0.0917969 14.0657 0.0917969 9.04588H36.0918C36.0918 -5.96582 23.8792 -18 9.01698 -18V18ZM18 8.98827C18 14.0399 13.9192 18 9.01698 18V-18C-5.81342 -18 -18 -5.99161 -18 8.98827H18ZM8.98827 -0.0234375C13.9653 -0.0234375 18 4.01124 18 8.98827H-18C-18 23.8935 -5.91696 35.9766 8.98827 35.9766V-0.0234375ZM17.7971 35.9766C27.901 35.9766 36.0918 27.7857 36.0918 17.6819H0.0917969C0.0917969 7.90356 8.01867 -0.0234375 17.7971 -0.0234375V35.9766Z" fill="#FAF9F6" mask="url(#path-1-inside-1_448_3705)"/>
<path d="M14.8652 14.6744C14.8652 14.7798 14.7798 14.8652 14.6744 14.8652H9.04589C5.83195 14.8652 3.22654 12.2598 3.22654 9.04589C3.22654 5.83195 5.83195 3.22654 9.04589 3.22654C12.2598 3.22654 14.8652 5.83195 14.8652 9.04589V14.6744Z" fill="#1E1E1E"/>
<path d="M97.5924 1.61367L94.2506 14.9578H96.901L96.2096 17.7696H90.3326L94.3659 1.61367H97.5924Z" fill="white"/>
<path d="M107.326 1.61367L105.044 17.7465H101.817L102.44 13.7594H101.034L99.6971 17.7465H96.4705L102.278 1.61367H107.326ZM102.901 10.9477L103.523 7.09884H103.292L102.002 10.9477H102.901Z" fill="white"/>
<path d="M113.521 1.63672C114.873 1.63672 115.826 1.98242 116.379 2.67383C116.932 3.34987 117.047 4.33321 116.724 5.62384L116.701 5.73907C116.563 6.32293 116.371 6.83764 116.125 7.28321C115.879 7.71342 115.603 8.08217 115.296 8.38947C115.004 8.69676 114.696 8.93491 114.374 9.10392C114.051 9.27293 113.736 9.3728 113.429 9.40353L113.383 9.634C113.675 9.66473 113.951 9.77228 114.212 9.95665C114.489 10.141 114.712 10.4022 114.881 10.7403C115.05 11.0783 115.157 11.4778 115.203 11.9387C115.249 12.3996 115.203 12.922 115.065 13.5059L114.996 13.7594C114.673 15.0347 114.036 16.0257 113.083 16.7324C112.13 17.4239 110.955 17.7696 109.557 17.7696H105.57L109.58 1.63672H113.521ZM111.193 8.1129H111.862C112.215 8.1129 112.491 8.0284 112.691 7.85939C112.906 7.67501 113.068 7.3754 113.175 6.96056L113.498 5.62384C113.605 5.20899 113.613 4.90938 113.521 4.72501C113.429 4.54063 113.198 4.44844 112.829 4.44844H112.115L111.193 8.1129ZM109.488 14.9578H110.225C110.947 14.9578 111.408 14.543 111.608 13.7133L112 12.1C112.123 11.6698 112.123 11.3702 112 11.2012C111.877 11.0168 111.616 10.9246 111.216 10.9246H110.502L109.488 14.9578Z" fill="white"/>
<path d="M122.292 7.35235L122.775 5.39337C122.883 5.00925 122.883 4.71732 122.775 4.51758C122.668 4.31784 122.476 4.21797 122.199 4.21797C121.892 4.21797 121.631 4.32553 121.416 4.54063C121.201 4.74037 121.047 5.02462 120.955 5.39337L120.678 6.47657C120.617 6.7224 120.586 6.93751 120.586 7.12188C120.586 7.2909 120.64 7.45222 120.747 7.60587C120.855 7.75952 121.016 7.92084 121.231 8.08986C121.462 8.2435 121.777 8.42788 122.176 8.64298L122.868 8.98868C123.252 9.18842 123.551 9.41121 123.767 9.65705C123.997 9.90288 124.158 10.2025 124.25 10.5559C124.343 10.8939 124.366 11.2934 124.32 11.7543C124.289 12.2153 124.197 12.7607 124.043 13.3906L123.951 13.7594C123.613 15.1115 122.983 16.1563 122.061 16.8938C121.155 17.6313 120.025 18 118.673 18C117.336 18 116.399 17.639 115.861 16.9168C115.339 16.1947 115.255 15.1422 115.608 13.7594L116.023 12.0539H119.249L118.765 14.0129C118.581 14.7965 118.788 15.1883 119.388 15.1883C119.695 15.1883 119.956 15.0884 120.171 14.8887C120.402 14.6736 120.563 14.3817 120.655 14.0129L120.955 12.8606C121.016 12.6147 121.047 12.4073 121.047 12.2383C121.047 12.0693 120.993 11.908 120.886 11.7543C120.793 11.6007 120.64 11.447 120.425 11.2934C120.21 11.1397 119.918 10.963 119.549 10.7633L118.765 10.3715C118.381 10.1718 118.074 9.94897 117.843 9.70314C117.628 9.44194 117.475 9.13465 117.383 8.78126C117.29 8.42788 117.26 8.02071 117.29 7.55978C117.336 7.08347 117.436 6.53035 117.59 5.9004L117.705 5.43946C118.028 4.1642 118.627 3.17318 119.503 2.46641C120.394 1.75964 121.493 1.40625 122.799 1.40625C124.151 1.40625 125.096 1.775 125.633 2.5125C126.186 3.23464 126.294 4.27175 125.956 5.62384L125.518 7.35235H122.292Z" fill="white"/>
<path d="M30.8663 7.35196L31.3503 5.39298C31.4578 5.00886 31.4578 4.71693 31.3503 4.51719C31.2427 4.31745 31.0507 4.21758 30.7741 4.21758C30.4668 4.21758 30.2056 4.32514 29.9905 4.54024C29.7754 4.73998 29.6218 5.02422 29.5296 5.39298L29.253 6.47618C29.1916 6.72201 29.1608 6.93712 29.1608 7.12149C29.1608 7.2905 29.2146 7.45183 29.3222 7.60548C29.4297 7.75913 29.591 7.92045 29.8061 8.08946C30.0366 8.24311 30.3516 8.42749 30.7511 8.64259L31.4425 8.98829C31.8266 9.18803 32.1262 9.41082 32.3413 9.65665C32.5718 9.90249 32.7331 10.2021 32.8253 10.5555C32.9175 10.8935 32.9405 11.293 32.8944 11.7539C32.8637 12.2149 32.7715 12.7603 32.6179 13.3903L32.5257 13.759C32.1877 15.1111 31.5577 16.1559 30.6358 16.8934C29.7293 17.6309 28.6 17.9996 27.2479 17.9996C25.9112 17.9996 24.974 17.6386 24.4362 16.9164C23.9138 16.1943 23.8293 15.1418 24.1827 13.759L24.5975 12.0535H27.8241L27.3401 14.0125C27.1558 14.7961 27.3632 15.1879 27.9624 15.1879C28.2697 15.1879 28.5309 15.088 28.746 14.8883C28.9765 14.6732 29.1378 14.3813 29.23 14.0125L29.5296 12.8602C29.591 12.6143 29.6218 12.4069 29.6218 12.2379C29.6218 12.0689 29.568 11.9076 29.4604 11.7539C29.3683 11.6003 29.2146 11.4466 28.9995 11.293C28.7844 11.1393 28.4925 10.9626 28.1237 10.7629L27.3401 10.3711C26.956 10.1714 26.6487 9.94858 26.4183 9.70275C26.2031 9.44155 26.0495 9.13426 25.9573 8.78087C25.8651 8.42749 25.8344 8.02032 25.8651 7.55939C25.9112 7.08308 26.0111 6.52996 26.1647 5.90001L26.28 5.43907C26.6026 4.16381 27.2018 3.17279 28.0776 2.46602C28.9688 1.75925 30.0673 1.40586 31.3733 1.40586C32.7254 1.40586 33.6703 1.77461 34.2081 2.51211C34.7612 3.23425 34.8688 4.27136 34.5308 5.62344L34.0929 7.35196H30.8663Z" fill="white"/>
<path d="M36.4329 14.0125C36.2485 14.7961 36.4559 15.1879 37.0551 15.1879C37.3624 15.1879 37.6236 15.088 37.8387 14.8883C38.0692 14.6732 38.2305 14.3813 38.3227 14.0125L39.2446 10.325H42.4711L41.6184 13.759C41.265 15.1111 40.6274 16.1559 39.7055 16.8934C38.799 17.6309 37.6774 17.9996 36.3407 17.9996C35.0039 17.9996 34.0667 17.6386 33.5289 16.9164C33.0065 16.1789 32.922 15.1265 33.2754 13.759L35.3036 5.6004C35.6416 4.23295 36.2562 3.18815 37.1473 2.46602C38.0385 1.74388 39.1447 1.38281 40.4661 1.38281C41.8182 1.38281 42.7708 1.75156 43.3239 2.48906C43.877 3.2112 43.9846 4.24831 43.6465 5.6004L42.7938 9.05743H39.5442L40.4661 5.36993C40.6812 4.58633 40.4737 4.19454 39.8438 4.19454C39.2139 4.19454 38.7913 4.58633 38.5762 5.36993L36.4329 14.0125Z" fill="white"/>
<path d="M44.3963 5.6004C44.7497 4.24831 45.3643 3.2112 46.24 2.48906C47.1312 1.76693 48.2374 1.40586 49.5588 1.40586C50.9109 1.40586 51.8635 1.77461 52.4166 2.51211C52.9697 3.23425 53.0773 4.26368 52.7393 5.6004L50.7111 13.7821C50.3731 15.1341 49.7432 16.1789 48.8213 16.9164C47.9148 17.6386 46.7855 17.9996 45.4334 17.9996C44.112 17.9996 43.1825 17.6386 42.6447 16.9164C42.1223 16.1943 42.0301 15.1495 42.3682 13.7821L44.3963 5.6004ZM45.5256 14.0125C45.3412 14.8115 45.5486 15.211 46.1479 15.211C46.7932 15.211 47.2157 14.8115 47.4154 14.0125L49.5818 5.39298C49.7662 4.60938 49.5588 4.21758 48.9596 4.21758C48.6523 4.21758 48.3834 4.31745 48.1529 4.51719C47.9378 4.71693 47.7842 5.00886 47.692 5.39298L45.5256 14.0125Z" fill="white"/>
<path d="M57.7066 1.63633L54.6183 14.0125C54.4186 14.8115 54.6106 15.211 55.1945 15.211C55.471 15.211 55.7169 15.1111 55.932 14.9114C56.1471 14.6962 56.3007 14.3966 56.3929 14.0125L59.4812 1.63633H62.7078L59.6886 13.7821C59.3506 15.1341 58.7283 16.1789 57.8218 16.9164C56.9153 17.6386 55.7937 17.9996 54.457 17.9996C53.151 17.9996 52.2368 17.6386 51.7144 16.9164C51.192 16.1943 51.1075 15.1495 51.4609 13.7821L54.48 1.63633H57.7066Z" fill="white"/>
<path d="M70.4895 4.425H68.1157L64.7969 17.7461H61.5704L64.8891 4.425H62.5383L63.2298 1.61328H71.1809L70.4895 4.425Z" fill="white"/>
<path d="M75.0148 1.63633L71.0047 17.7692H67.7781L71.1809 4.425L71.964 1.63633H75.0148Z" fill="white"/>
<path d="M84.3213 1.63633L80.2881 17.7692H76.7388L77.1306 7.23673H76.9463L75.0334 17.7692H71.8068L75.817 1.63633H79.3662L79.0435 12.2379H79.2279L81.0947 1.63633H84.3213Z" fill="white"/>
<path d="M85.25 14.0125C85.1578 14.3813 85.1578 14.6732 85.25 14.8883C85.3575 15.088 85.5419 15.1879 85.8031 15.1879C86.1104 15.1879 86.3947 15.0496 86.6559 14.7731C86.917 14.4811 87.1091 14.1124 87.232 13.6668L87.8773 11.0625H86.8172L87.3473 8.96525H91.634L89.4445 17.7461H87.209L87.6008 16.1559H87.3703C87.063 16.7397 86.6251 17.193 86.0566 17.5157C85.4881 17.8383 84.9043 17.9996 84.3051 17.9996C83.8902 17.9996 83.5061 17.9151 83.1527 17.7461C82.8147 17.5771 82.5305 17.3236 82.3 16.9856C82.0849 16.6322 81.9466 16.1866 81.8851 15.6489C81.8391 15.1111 81.9082 14.4811 82.0926 13.759L84.1207 5.6004C84.4587 4.23295 85.0733 3.18815 85.9644 2.46602C86.8556 1.74388 87.9695 1.38281 89.3062 1.38281C90.643 1.38281 91.5879 1.75156 92.141 2.48906C92.6941 3.2112 92.8017 4.24831 92.4637 5.6004L91.8184 8.18165H88.5918L89.3062 5.36993C89.4906 4.58633 89.2755 4.19454 88.6609 4.19454C88.3536 4.19454 88.0848 4.29441 87.8543 4.49415C87.6392 4.69389 87.4855 4.98581 87.3934 5.36993L85.25 14.0125Z" fill="white"/>
<path d="M11.0625 11.0067C11.0625 11.0375 11.0375 11.0625 11.0067 11.0625H9.10351C8.02159 11.0625 7.14453 10.1854 7.14453 9.10351C7.14453 8.02159 8.02159 7.14453 9.10351 7.14453C10.1854 7.14453 11.0625 8.02159 11.0625 9.10351V11.0067Z" fill="#FAF9F6"/>
</svg>
